<?xml version="1.0" encoding="UTF-8"?>
<svg id="Layer_2" data-name="Layer 2" xmlns="http://www.w3.org/2000/svg" viewBox="0 0 345.23 409">
  <defs>
    <style>
      .cls-1 {
        fill: #fff;
      }

      .cls-2 {
        fill: #9cf;
      }
    </style>
  </defs>
  <g id="Layer_2-2" data-name="Layer 2">
    <rect class="cls-2" x="38.44" y="4.21" width="302.57" height="361.57"/>
    <polygon class="cls-1" points="328.23 18 42.66 18 34.23 18 25.23 18 25.44 31 16.23 31.02 19.23 392 307.23 392 317.23 392 317.23 378 328.23 378 328.23 370 328.23 361.57 328.23 18"/>
    <polygon class="cls-2" points="307.02 43.21 19.66 43.21 11.23 43.21 4.44 43.21 4.44 404.79 307.02 404.79 307.02 396 307.02 387.57 307.02 43.21"/>
    <path class="cls-2" d="M4.23,44C3.41,19.88,32.23,0,43.23,4L4.23,44Z"/>
    <path d="M44.54,0h-9.9l-.41,.11c-4.24,1.14-8.88,3.45-13.53,6.83C11.47,13.63,1.85,25.26,.24,39h-.01v.09c-.19,1.66-.27,3.34-.21,5.06l.21,6.2V409H311.23v-13h11v-13h11v-13h12V0H44.54ZM16.23,19c7-8,17-9,17-9,0,0-16.22,15.16-18,17-1.23,1.27-5,5-5,5,.56-.86,1.78-8.18,6-13ZM302.8,400.57H8.66V47.43H302.8V400.57Zm11-13h-2.57V39H19.66v-4.57H313.8V387.57Zm11-13h-2.57V26H30.66v-3.07l1.46-1.5H324.8V374.57Zm12-13h-3.57V13H42.66v-4.38l2.14-.19H336.8V361.57Z"/>
  </g>
</svg>